# xmcd
#
# Track frame offsets: 
#        150
#        10426
#        19578
#        27671
#        37731
#        47359
#        63589
#        76304
#        88952
#        99498
#
# Disc length: 1568 seconds
#
# Revision: 0
# Processed by: cddbd v1.5.2PL0 Copyright (c) Steve Scherf et al.
# Submitted via: ExactAudioCopy v0.99pb4
#
DISCID=73061e0a
DTITLE=Johnny Cash - Train Of Love
DYEAR=2008
DGENRE=Country
TTITLE0=Train Of Love
TTITLE1=I Couldn't Keep From Crying
TTITLE2=The Wreck Of Ol' '97
TTITLE3=Get Rhythm
TTITLE4=Why Me Lord
TTITLE5=City Of New Orleans
TTITLE6=Long Black Veil
TTITLE7=Jackson
TTITLE8=If I Were A Carpenter
TTITLE9=Orange Blossom Special
EXTD=
EXTT0=
EXTT1=
EXTT2=
EXTT3=
EXTT4=
EXTT5=
EXTT6=
EXTT7=
EXTT8=
EXTT9=
PLAYORDER=
